<svg xmlns="http://www.w3.org/2000/svg" viewBox="0 0 225.77 75.85"><defs><style>.cls-1{isolation:isolate;}.cls-2{font-size:39.33px;stroke-linecap:round;font-family:CenturyGothic-Bold, Century Gothic;font-weight:700;}.cls-2,.cls-3,.cls-4{stroke:#000;stroke-miterlimit:10;stroke-width:0.5px;}.cls-3{fill:#fff;}.cls-4{fill:#1ca7ec;}.cls-5{fill:#ccc;}.cls-5,.cls-6{mix-blend-mode:multiply;}.cls-6{opacity:0.3;}</style></defs><g class="cls-1"><g id="Layer_1" data-name="Layer 1"><text class="cls-2" transform="translate(65.96 59.01)">Cypheir</text><path class="cls-3" d="M90.26,39.91l21.69-25S89.75,3.5,60.57,11.49A55.44,55.44,0,0,0,21.11,50.57c9.26-9.9,23.51-17.41,37.47-20.14C75,27.22,84,33.31,90.26,39.91Z" transform="translate(-20.53 -8.4)"/><path class="cls-4" d="M23.55,40.49l2.68-4.91S21.88,30.12,21,28.69C21,28.69,22.38,38.38,23.55,40.49Z" transform="translate(-20.53 -8.4)"/><path class="cls-4" d="M33.07,41.82c-.31,0-6.51,4.88-6.51,4.88A40.8,40.8,0,0,0,44.73,63.28c17.08,9.18,32.68,5.29,38.15,4.66,0,0-10-17.37-12.3-21.42,0,0-9.85,6.91-19.3,4.34C39.38,47.61,33.07,41.82,33.07,41.82Z" transform="translate(-20.53 -8.4)"/><path d="M51.6,34.59s7.86,5.6,11.48,14.55a21.79,21.79,0,0,1-7.86,1.22S53.36,37.94,51.6,34.59Z" transform="translate(-20.53 -8.4)"/><path d="M39.9,66.94c-.28,0,9.62,17.31,9.62,17.31,5-3.23,9.9-5.19,14-14.19,0,0-10.91-1.45-16.81-4.74Z" transform="translate(-20.53 -8.4)"/><path class="cls-5" d="M90.26,39.71l2.92-3.36S83.1,20.93,56.32,28.49C32.55,35.2,21.11,50.37,21.11,50.37,30.37,40.47,44.62,33,58.58,30.24,75,27,84,33.12,90.26,39.71Z" transform="translate(-20.53 -8.4)"/><path class="cls-6" d="M23.55,40.49l.6-1.09S21.88,30.12,21,28.69C21,28.69,22.38,38.38,23.55,40.49Z" transform="translate(-20.53 -8.4)"/><path class="cls-6" d="M27.13,46.15l-.57.55A40.8,40.8,0,0,0,44.73,63.28c17.08,9.18,32.68,5.29,38.15,4.66,0,0,.36.79-1.9-3.26,0,0-16.9,4.75-29.27.31C41.56,61.35,34.93,56.25,27.13,46.15Z" transform="translate(-20.53 -8.4)"/><path d="M51.6,34.59s7.86,5.6,11.48,14.55a21.79,21.79,0,0,1-7.86,1.22S53.36,37.94,51.6,34.59Z" transform="translate(-20.53 -8.4)"/><path d="M39.9,66.94c-.28,0,9.62,17.31,9.62,17.31,5-3.23,9.9-5.19,14-14.19,0,0-10.91-1.45-16.81-4.74Z" transform="translate(-20.53 -8.4)"/></g></g></svg>