<svg xmlns="http://www.w3.org/2000/svg" viewBox="0 0 1280 800"><defs><style>.cls-1{isolation:isolate;}.cls-2{font-size:200px;stroke-linecap:round;stroke-width:2px;font-family:CenturyGothic-Bold, Century Gothic;font-weight:700;}.cls-2,.cls-3,.cls-4{stroke:#000;stroke-miterlimit:10;}.cls-3{fill:#fff;}.cls-3,.cls-4{stroke-width:5px;}.cls-4{fill:#1ca7ec;}.cls-5{fill:#ccc;}.cls-5,.cls-6{mix-blend-mode:multiply;}.cls-6{opacity:0.3;}</style></defs><title>Artboard 1</title><g class="cls-1"><g id="Layer_1" data-name="Layer 1"><text class="cls-2" transform="translate(467.43 496.77)">Cypheir</text><path class="cls-3" d="M486.59,357,596.9,229.87S484,171.81,335.64,212.45C167.51,258.5,135,411.14,135,411.14c47.09-50.32,119.54-88.51,190.53-102.37C409.18,292.44,455,323.41,486.59,357Z"/><path d="M290,329.9s40,28.48,58.37,74c0,0-15.4,6.42-40,6.2C308.43,410.08,299,346.91,290,329.9Z"/><path d="M230.53,494.41c-1.38,0,48.94,88,48.94,88C305,566,329.8,556,350.71,510.27c0,0-55.5-7.38-85.49-24.13Z"/><path class="cls-4" d="M147.42,359.91l13.63-25s-22.13-27.75-26.87-35.06C134.18,299.88,141.44,349.19,147.42,359.91Z"/><path class="cls-4" d="M195.83,366.65c-1.61,0-33.09,24.82-33.09,24.82,33.78,58.13,81,78.25,92.37,84.33,86.87,46.65,166.14,26.89,194,23.67,0,0-51-88.33-62.51-108.92,0,0-50.09,35.16-98.12,22.06C227.88,396.09,195.83,366.65,195.83,366.65Z"/><path class="cls-5" d="M486.59,356l14.86-17.12S450.2,260.43,314,298.88C193.18,333,135,410.14,135,410.14c47.09-50.32,119.54-88.51,190.53-102.37C409.18,291.44,455,322.41,486.59,356Z"/><path class="cls-6" d="M147.42,359.91l3-5.55s-11.53-47.17-16.27-54.48C134.18,299.88,141.44,349.19,147.42,359.91Z"/><path class="cls-6" d="M165.63,388.68l-2.89,2.79c33.78,58.13,81,78.25,92.37,84.33,86.87,46.65,166.14,26.89,194,23.67,0,0,1.84,4-9.65-16.57,0,0-85.92,24.13-148.81,1.58C239,466,205.26,440,165.63,388.68Z"/></g></g></svg>